<svg width="403" height="237" viewBox="0 0 403 237" fill="none" xmlns="http://www.w3.org/2000/svg">
<path d="M127.367 218.27H93.2223C90.9249 218.358 88.6341 217.972 86.4925 217.136C84.351 216.3 82.4046 215.031 80.7747 213.41C79.1448 211.788 77.8663 209.849 77.019 207.711C76.1716 205.574 75.7735 203.285 75.8495 200.988C75.8495 194.976 77.723 190.404 81.4701 187.272H85.9786C84.9853 188.211 84.1995 189.348 83.6716 190.61C83.1436 191.871 82.8852 193.229 82.9128 194.596C82.8699 196.036 83.1365 197.47 83.6948 198.799C84.253 200.128 85.0899 201.322 86.1489 202.3C88.4308 204.355 91.4268 205.434 94.4947 205.306H122.427L120.564 168.967V167.965C120.602 167.102 120.819 166.256 121.2 165.48C121.581 164.704 122.118 164.015 122.778 163.457L131.975 154.69V199.775C131.969 207.851 130.433 214.016 127.367 218.27ZM108.331 180.97C108.298 181.001 108.258 181.026 108.215 181.041C108.172 181.057 108.126 181.063 108.08 181.06H107.91C106.885 180.626 105.786 180.395 104.674 180.379C102.8 180.379 101.578 180.97 101.007 182.162C101.675 183.585 103.605 184.296 106.798 184.296C107.835 184.359 108.87 184.152 109.804 183.695C109.824 183.669 109.85 183.649 109.879 183.635C109.909 183.621 109.941 183.614 109.974 183.615C110.008 183.61 110.043 183.613 110.075 183.624C110.108 183.634 110.138 183.653 110.162 183.677C110.187 183.701 110.205 183.731 110.216 183.764C110.226 183.796 110.229 183.831 110.224 183.865C109.824 185.201 109.156 187.205 108.221 189.877H107.539C103.452 189.877 100.78 191.607 99.5242 195.066H98.3319C97.3937 193.942 96.8828 192.523 96.8892 191.059C96.8641 190.324 97.0125 189.594 97.3223 188.927C97.6322 188.26 98.0947 187.676 98.6726 187.222C97.5332 185.992 96.8968 184.379 96.8892 182.703C96.8681 181.63 97.0731 180.564 97.4908 179.575C97.9085 178.586 98.5296 177.696 99.3138 176.962C100.108 176.19 101.05 175.584 102.082 175.182C103.115 174.779 104.217 174.587 105.325 174.618C108.11 174.618 109.617 175.5 109.844 177.263C109.895 177.369 109.922 177.485 109.924 177.603C109.739 178.867 109.169 180.043 108.291 180.97H108.331Z" fill="#191654"/>
<path d="M129.24 231.645V227.047C133.03 227.017 136.799 226.471 140.441 225.424C143.115 224.565 145.512 223.008 147.384 220.915C148.785 219.315 149.946 217.519 150.831 215.585C151.701 214.023 152.237 212.296 152.404 210.516C152.245 207.801 151.378 205.176 149.889 202.901C148.224 200.044 146.079 197.495 143.547 195.367C143.301 195.149 143.149 194.844 143.126 194.515C143.131 194.342 143.158 194.171 143.207 194.004L148.316 181.651C153.145 185.458 156.438 189.489 158.195 193.744C160.076 198.485 161.031 203.542 161.01 208.642C161.016 215.397 159.191 222.027 155.73 227.828C152.324 233.559 148.861 236.428 145.341 236.435C143.688 236.435 140.572 235.633 135.973 234.04L135.031 233.709C134.29 233.419 133.077 232.968 131.374 232.347L130.092 231.916L129.24 231.645Z" fill="#191654"/>
<path d="M168.134 74.5389H179.285L178.894 200.316C178.894 203.656 180.14 205.326 182.631 205.326H185.366V218.27H181.87C173.975 218.27 169.83 214.213 169.436 206.097" fill="#191654"/>
<path d="M221.043 205.326H229.219L229.129 218.27H220.192C216.427 218.248 212.765 217.034 209.732 214.804C206.762 217.107 203.101 218.339 199.343 218.3H183.823V205.326H196.517C195.543 203.585 195.042 201.62 195.064 199.625C195.064 195.304 197.011 191.229 200.905 187.402C204.799 183.575 208.957 181.658 213.379 181.651C214.863 181.651 216.325 182.006 217.643 182.688C218.961 183.37 220.096 184.357 220.953 185.569C223.047 188.332 224.129 191.731 224.019 195.197C224.029 198.79 222.995 202.309 221.043 205.326ZM221.554 169.388L216.355 174.578C216.241 174.744 216.092 174.884 215.919 174.988C215.746 175.091 215.553 175.157 215.353 175.179C214.895 175.123 214.47 174.911 214.15 174.578L210.403 170.841L206.666 174.578C206.537 174.754 206.37 174.9 206.178 175.004C205.986 175.108 205.773 175.168 205.554 175.179C205.354 175.157 205.161 175.091 204.988 174.988C204.815 174.884 204.666 174.744 204.552 174.578L199.353 169.388V167.775L204.552 162.575C204.67 162.419 204.821 162.293 204.994 162.204C205.168 162.115 205.359 162.068 205.554 162.064C205.764 162.071 205.971 162.119 206.162 162.207C206.353 162.295 206.525 162.42 206.666 162.575L210.403 166.322L214.241 162.575C214.382 162.419 214.553 162.293 214.744 162.205C214.935 162.118 215.142 162.07 215.353 162.064C215.548 162.067 215.739 162.114 215.913 162.203C216.087 162.292 216.238 162.419 216.355 162.575L221.554 167.775V169.388ZM210.313 204.985C211.481 204.351 212.444 203.399 213.092 202.239C213.739 201.079 214.044 199.759 213.97 198.433C213.97 194.906 212.608 193.153 209.882 193.153C209.164 193.162 208.457 193.336 207.817 193.661C207.176 193.986 206.618 194.453 206.185 195.026C205.149 196.232 204.59 197.775 204.612 199.365C204.641 200.015 204.802 200.653 205.086 201.239C205.371 201.825 205.772 202.346 206.266 202.771C207.391 203.859 208.79 204.624 210.313 204.985Z" fill="#191654"/>
<path d="M267.03 188.464L266.028 190.337H265.517C264.265 190.227 263.273 190.167 262.512 190.167C259.514 190.049 256.529 190.618 253.785 191.83C251.298 193.152 249.178 195.069 247.614 197.411C250.619 202.694 256.437 205.332 265.067 205.326H271.539L268.132 216.146C267.682 217.559 267.13 218.27 266.519 218.27H227.686V205.326H240.37C239.157 203.078 238.543 200.556 238.587 198.002C238.495 193.766 239.964 189.644 242.714 186.42C243.879 184.918 245.37 183.701 247.075 182.861C248.779 182.021 250.653 181.58 252.553 181.571C256.581 181.571 261.406 183.869 267.03 188.464Z" fill="#191654"/>
<path d="M42.0356 134.893H57.0039V86.5116H27.0574L105.375 16.259L168.144 79.0274H402.526L323.918 0.419067H107.68L0.567383 99.1855H42.0356V134.893Z" fill="#191654"/>
<path d="M100.135 71.5533H81.7607V89.928H100.135V71.5533Z" fill="#191654"/>
<path d="M100.135 93.1641H81.7607V111.539H100.135V93.1641Z" fill="#191654"/>
<path d="M123.369 71.5533H104.994V89.928H123.369V71.5533Z" fill="#191654"/>
<path d="M123.369 92.623H104.994V110.998H123.369V92.623Z" fill="#191654"/>
</svg>
