<svg width="41" height="40" viewBox="0 0 41 40" fill="none" xmlns="http://www.w3.org/2000/svg">
<path d="M34.2501 27.6776V12.3226C35.1031 12.104 35.8831 11.6636 36.5108 11.0461C37.1385 10.4286 37.5917 9.65593 37.8242 8.80664C38.0568 7.95735 38.0605 7.06164 37.8349 6.21046C37.6093 5.35929 37.1625 4.58296 36.5399 3.96032C35.9172 3.33767 35.1409 2.89087 34.2897 2.66529C33.4385 2.43972 32.5428 2.44339 31.6935 2.67595C30.8443 2.9085 30.0716 3.36166 29.4541 3.98939C28.8366 4.61713 28.3962 5.3971 28.1776 6.25009H12.8226C12.604 5.3971 12.1636 4.61713 11.5461 3.98939C10.9286 3.36166 10.1559 2.9085 9.30664 2.67595C8.45735 2.44339 7.56164 2.43972 6.71046 2.66529C5.85929 2.89087 5.08296 3.33767 4.46032 3.96032C3.83767 4.58296 3.39087 5.35929 3.16529 6.21046C2.93972 7.06164 2.94339 7.95735 3.17595 8.80664C3.4085 9.65593 3.86166 10.4286 4.48939 11.0461C5.11713 11.6636 5.8971 12.104 6.75009 12.3226V27.6776C5.8971 27.8962 5.11713 28.3366 4.48939 28.9541C3.86166 29.5716 3.4085 30.3443 3.17595 31.1935C2.94339 32.0428 2.93972 32.9385 3.16529 33.7897C3.39087 34.6409 3.83767 35.4172 4.46032 36.0399C5.08296 36.6625 5.85929 37.1093 6.71046 37.3349C7.56164 37.5605 8.45735 37.5568 9.30664 37.3242C10.1559 37.0917 10.9286 36.6385 11.5461 36.0108C12.1636 35.3831 12.604 34.6031 12.8226 33.7501H28.1776C28.3962 34.6031 28.8366 35.3831 29.4541 36.0108C30.0716 36.6385 30.8443 37.0917 31.6935 37.3242C32.5428 37.5568 33.4385 37.5605 34.2897 37.3349C35.1409 37.1093 35.9172 36.6625 36.5399 36.0399C37.1625 35.4172 37.6093 34.6409 37.8349 33.7897C38.0605 32.9385 38.0568 32.0428 37.8242 31.1935C37.5917 30.3443 37.1385 29.5716 36.5108 28.9541C35.8831 28.3366 35.1031 27.8962 34.2501 27.6776ZM33.0001 5.00009C33.4945 5.00009 33.9779 5.14672 34.389 5.42142C34.8001 5.69612 35.1206 6.08657 35.3098 6.54338C35.499 7.0002 35.5485 7.50287 35.4521 7.98782C35.3556 8.47277 35.1175 8.91823 34.7679 9.26786C34.4182 9.61749 33.9728 9.85559 33.4878 9.95206C33.0029 10.0485 32.5002 9.99901 32.0434 9.80979C31.5866 9.62057 31.1961 9.30014 30.9214 8.88902C30.6467 8.4779 30.5001 7.99455 30.5001 7.50009C30.5001 6.83705 30.7635 6.20117 31.2323 5.73233C31.7012 5.26348 32.3371 5.00009 33.0001 5.00009ZM5.50009 7.50009C5.50009 7.00564 5.64672 6.52229 5.92142 6.11117C6.19612 5.70004 6.58657 5.37961 7.04338 5.19039C7.5002 5.00117 8.00287 4.95167 8.48782 5.04813C8.97277 5.14459 9.41823 5.38269 9.76786 5.73233C10.1175 6.08196 10.3556 6.52741 10.4521 7.01237C10.5485 7.49732 10.499 7.99999 10.3098 8.4568C10.1206 8.91362 9.80014 9.30406 9.38902 9.57877C8.9779 9.85347 8.49455 10.0001 8.00009 10.0001C7.33705 10.0001 6.70117 9.7367 6.23233 9.26786C5.76348 8.79902 5.50009 8.16313 5.50009 7.50009ZM8.00009 35.0001C7.50564 35.0001 7.02229 34.8535 6.61117 34.5788C6.20004 34.3041 5.87961 33.9136 5.69039 33.4568C5.50117 33 5.45167 32.4973 5.54813 32.0124C5.64459 31.5274 5.88269 31.082 6.23233 30.7323C6.58196 30.3827 7.02741 30.1446 7.51237 30.0481C7.99732 29.9517 8.49999 30.0012 8.9568 30.1904C9.41362 30.3796 9.80406 30.7 10.0788 31.1112C10.3535 31.5223 10.5001 32.0056 10.5001 32.5001C10.5001 33.1631 10.2367 33.799 9.76786 34.2679C9.29902 34.7367 8.66313 35.0001 8.00009 35.0001ZM28.1776 31.2501H12.8226C12.598 30.391 12.1486 29.6073 11.5208 28.9794C10.8929 28.3516 10.1091 27.9022 9.25009 27.6776V12.3226C10.1091 12.098 10.8929 11.6486 11.5208 11.0208C12.1486 10.3929 12.598 9.60915 12.8226 8.75009H28.1776C28.4022 9.60915 28.8516 10.3929 29.4794 11.0208C30.1073 11.6486 30.891 12.098 31.7501 12.3226V27.6776C30.8905 27.901 30.1061 28.35 29.478 28.978C28.85 29.6061 28.401 30.3905 28.1776 31.2501ZM33.0001 35.0001C32.5056 35.0001 32.0223 34.8535 31.6112 34.5788C31.2 34.3041 30.8796 33.9136 30.6904 33.4568C30.5012 33 30.4517 32.4973 30.5481 32.0124C30.6446 31.5274 30.8827 31.082 31.2323 30.7323C31.582 30.3827 32.0274 30.1446 32.5124 30.0481C32.9973 29.9517 33.5 30.0012 33.9568 30.1904C34.4136 30.3796 34.8041 30.7 35.0788 31.1112C35.3535 31.5223 35.5001 32.0056 35.5001 32.5001C35.4991 33.1628 35.2354 33.7981 34.7668 34.2668C34.2981 34.7354 33.6628 34.9991 33.0001 35.0001Z" fill="#191654"/>
</svg>
