<svg width="43" height="44" viewBox="0 0 43 44" fill="none" xmlns="http://www.w3.org/2000/svg">
<path d="M41.5 23.0526V29.3684C41.5 31.6018 40.5635 33.7438 38.8965 35.323C37.2295 36.9023 34.9686 37.7895 32.6111 37.7895H10.3889C8.03141 37.7895 5.77049 36.9023 4.10349 35.323C2.4365 33.7438 1.5 31.6018 1.5 29.3684V24.3158C1.5 23.9808 1.64048 23.6595 1.89052 23.4226C2.14057 23.1857 2.47971 23.0526 2.83333 23.0526H41.5ZM41.5 23.0526V10.4211C41.5 8.18765 40.5635 6.04572 38.8965 4.46647C37.2295 2.88722 34.9686 2 32.6111 2H21.5M30.3889 37.7895L32.6111 42M12.6111 37.7895L10.3889 42" stroke="#191654" stroke-width="3" stroke-linecap="round" stroke-linejoin="round"/>
<path d="M29.0552 12.5263H13.9441C13.2086 12.5263 12.6197 11.9621 12.6997 11.2674C13.0241 8.47368 14.5286 2 21.4997 2C28.4708 2 29.9752 8.47368 30.2997 11.2674C30.3797 11.9621 29.7908 12.5263 29.0552 12.5263Z" stroke="#191654" stroke-width="3" stroke-linecap="round" stroke-linejoin="round"/>
</svg>
