<svg width="365" height="215" viewBox="0 0 365 215" fill="none" xmlns="http://www.w3.org/2000/svg">
<path d="M115.14 197.821H84.1353C82.0492 197.901 79.969 197.55 78.0243 196.791C76.0797 196.031 74.3122 194.88 72.8322 193.407C71.3522 191.935 70.1913 190.174 69.4218 188.233C68.6524 186.292 68.2909 184.214 68.3599 182.127C68.3599 176.669 70.0612 172.517 73.4637 169.673H77.5577C76.6557 170.526 75.9422 171.558 75.4627 172.704C74.9833 173.849 74.7486 175.082 74.7738 176.323C74.7348 177.632 74.9769 178.933 75.4838 180.14C75.9907 181.347 76.7507 182.431 77.7123 183.319C79.7844 185.185 82.5049 186.165 85.2907 186.049H110.655L108.963 153.051V152.141C108.998 151.357 109.195 150.589 109.541 149.884C109.887 149.18 110.374 148.554 110.974 148.047L119.325 140.087V181.027C119.319 188.359 117.924 193.957 115.14 197.821ZM97.8546 163.95C97.8245 163.979 97.7887 164.001 97.7495 164.015C97.7104 164.029 97.6687 164.035 97.6272 164.032H97.4725C96.5421 163.638 95.5443 163.428 94.534 163.413C92.8327 163.413 91.7228 163.95 91.2042 165.033C91.8107 166.325 93.5636 166.971 96.4627 166.971C97.4044 167.028 98.3447 166.84 99.192 166.425C99.2104 166.401 99.2339 166.383 99.2607 166.37C99.2876 166.357 99.317 166.351 99.3467 166.352C99.3776 166.347 99.4092 166.35 99.4389 166.36C99.4686 166.37 99.4955 166.386 99.5177 166.408C99.5398 166.431 99.5564 166.458 99.5662 166.487C99.576 166.517 99.5787 166.549 99.5741 166.579C99.2102 167.792 98.6037 169.612 97.7546 172.038H97.1359C93.4241 172.038 90.998 173.609 89.8578 176.751H88.7751C87.9232 175.73 87.4592 174.441 87.4651 173.112C87.4423 172.444 87.577 171.781 87.8584 171.176C88.1397 170.57 88.5597 170.04 89.0844 169.627C88.0498 168.511 87.4719 167.046 87.4651 165.524C87.4459 164.549 87.6321 163.582 88.0114 162.683C88.3907 161.785 88.9547 160.977 89.6667 160.311C90.3882 159.61 91.243 159.06 92.1805 158.694C93.1181 158.329 94.1194 158.155 95.1253 158.182C97.6545 158.182 99.0222 158.983 99.2284 160.584C99.2748 160.681 99.2997 160.786 99.3012 160.893C99.1334 162.041 98.6155 163.108 97.8182 163.95H97.8546Z" fill="#003973"/>
<path d="M116.842 209.966V205.791C120.283 205.764 123.705 205.268 127.013 204.317C129.441 203.537 131.617 202.124 133.318 200.223C134.59 198.769 135.644 197.139 136.447 195.383C137.238 193.964 137.724 192.396 137.876 190.779C137.731 188.315 136.944 185.931 135.592 183.865C134.08 181.27 132.132 178.956 129.833 177.024C129.609 176.826 129.472 176.548 129.451 176.25C129.455 176.093 129.48 175.937 129.524 175.786L134.164 164.569C138.549 168.026 141.539 171.686 143.134 175.55C144.842 179.855 145.71 184.447 145.691 189.078C145.696 195.212 144.039 201.233 140.896 206.5C137.803 211.704 134.658 214.309 131.462 214.315C129.961 214.315 127.131 213.587 122.955 212.141L122.1 211.841C121.427 211.577 120.326 211.167 118.78 210.603L117.615 210.212L116.842 209.966Z" fill="#003973"/>
<path d="M152.159 67.3052H162.284L161.93 181.518C161.93 184.55 163.061 186.067 165.323 186.067H167.807V197.821H164.632C157.463 197.821 153.699 194.136 153.341 186.767" fill="#003973"/>
<path d="M200.204 186.066H207.628L207.546 197.82H199.431C196.012 197.8 192.687 196.698 189.933 194.673C187.236 196.764 183.912 197.883 180.499 197.848H166.406V186.066H177.933C177.048 184.486 176.593 182.701 176.614 180.89C176.614 176.965 178.382 173.266 181.918 169.79C185.454 166.315 189.23 164.574 193.245 164.568C194.592 164.568 195.92 164.891 197.117 165.51C198.313 166.129 199.344 167.026 200.123 168.125C202.024 170.635 203.006 173.721 202.906 176.868C202.915 180.131 201.977 183.327 200.204 186.066ZM200.668 153.433L195.947 158.145C195.843 158.296 195.708 158.423 195.551 158.517C195.394 158.612 195.219 158.671 195.037 158.691C194.621 158.64 194.235 158.448 193.945 158.145L190.543 154.752L187.149 158.145C187.032 158.306 186.881 158.438 186.706 158.532C186.531 158.626 186.338 158.681 186.139 158.691C185.957 158.671 185.782 158.612 185.625 158.517C185.468 158.423 185.333 158.296 185.23 158.145L180.508 153.433V151.968L185.23 147.246C185.336 147.105 185.473 146.99 185.631 146.909C185.789 146.829 185.962 146.785 186.139 146.782C186.33 146.788 186.518 146.832 186.691 146.912C186.865 146.992 187.02 147.105 187.149 147.246L190.543 150.649L194.027 147.246C194.155 147.105 194.311 146.99 194.484 146.911C194.658 146.831 194.846 146.787 195.037 146.782C195.214 146.785 195.388 146.828 195.546 146.908C195.704 146.989 195.841 147.104 195.947 147.246L200.668 151.968V153.433ZM190.461 185.757C191.521 185.181 192.396 184.317 192.984 183.263C193.572 182.21 193.848 181.011 193.781 179.807C193.781 176.605 192.544 175.012 190.07 175.012C189.417 175.021 188.776 175.179 188.194 175.474C187.612 175.769 187.105 176.193 186.713 176.714C185.772 177.808 185.264 179.21 185.284 180.653C185.31 181.244 185.456 181.823 185.715 182.355C185.973 182.887 186.337 183.36 186.785 183.746C187.808 184.734 189.077 185.429 190.461 185.757Z" fill="#003973"/>
<path d="M241.963 170.755L241.053 172.457H240.589C239.452 172.357 238.551 172.302 237.859 172.302C235.138 172.195 232.427 172.712 229.935 173.812C227.677 175.012 225.752 176.753 224.331 178.88C227.06 183.677 232.343 186.073 240.179 186.067H246.056L242.963 195.892C242.554 197.175 242.053 197.821 241.499 197.821H206.236V186.067H217.754C216.652 184.026 216.094 181.735 216.134 179.416C216.051 175.57 217.385 171.827 219.882 168.899C220.94 167.536 222.294 166.431 223.842 165.668C225.39 164.905 227.091 164.504 228.816 164.496C232.474 164.496 236.856 166.583 241.963 170.755Z" fill="#003973"/>
<path d="M37.6554 122.109H51.2474V78.1766H24.0543L95.1711 14.3835L152.168 71.3806H365L293.619 0H97.2636L0 89.6852H37.6554V122.109Z" fill="#003973"/>
<path d="M90.413 64.5938H73.7278V81.2789H90.413V64.5938Z" fill="#003973"/>
<path d="M90.413 84.2178H73.7278V100.903H90.413V84.2178Z" fill="#003973"/>
<path d="M111.511 64.5938H94.8254V81.2789H111.511V64.5938Z" fill="#003973"/>
<path d="M111.511 83.7266H94.8254V100.412H111.511V83.7266Z" fill="#003973"/>
</svg>
