<svg width="94" height="94" viewBox="0 0 94 94" fill="none" xmlns="http://www.w3.org/2000/svg">
<path fill-rule="evenodd" clip-rule="evenodd" d="M86.1667 32.4811C86.1667 46.0954 75.0825 57.1326 61.4133 57.1326C58.9224 57.1326 53.2432 56.5607 50.4819 54.2656L47.0274 57.7044C44.9947 59.7293 45.543 60.3247 46.4478 61.3038C46.8238 61.7151 47.2624 62.189 47.6032 62.8666C47.6032 62.8666 50.4819 66.8773 47.6032 70.8918C45.8759 73.1831 41.0388 76.3908 35.5163 70.8918L34.3648 72.0355C34.3648 72.0355 37.8154 76.0501 34.9406 80.0647C33.2133 82.3559 28.6073 84.6472 24.5771 80.6365L20.5508 84.6472C17.7856 87.4006 14.4094 85.7947 13.0699 84.6472L9.61152 81.2083C6.3881 77.9967 8.2681 74.5187 9.61152 73.1792L39.5427 43.3733C39.5427 43.3733 36.6639 38.7908 36.6639 32.485C36.6639 18.8707 47.7481 7.8335 61.4173 7.8335C75.0864 7.8335 86.1667 18.8707 86.1667 32.4811ZM61.4173 41.0821C63.7019 41.0862 65.8946 40.1829 67.5134 38.5708C69.1321 36.9586 70.0444 34.7696 70.0496 32.485C70.0475 31.3534 69.8226 30.2334 69.3877 29.1887C68.9528 28.1441 68.3164 27.1954 67.5148 26.3967C66.7132 25.598 65.7621 24.965 64.7159 24.5339C63.6697 24.1028 62.5488 23.8819 61.4173 23.884C60.2857 23.8819 59.1648 24.1028 58.1186 24.5339C57.0724 24.965 56.1214 25.598 55.3198 26.3967C54.5182 27.1954 53.8818 28.1441 53.4468 29.1887C53.0119 30.2334 52.787 31.3534 52.7849 32.485C52.7901 34.7696 53.7024 36.9586 55.3212 38.5708C56.9399 40.1829 59.1327 41.0862 61.4173 41.0821Z" fill="white"/>
</svg>
