<svg width="94" height="94" viewBox="0 0 94 94" fill="none" xmlns="http://www.w3.org/2000/svg">
<path d="M70.5 31.3333H66.5833V23.5C66.5833 12.69 57.81 3.91663 47 3.91663C36.19 3.91663 27.4167 12.69 27.4167 23.5V31.3333H23.5C19.1917 31.3333 15.6667 34.8583 15.6667 39.1666V78.3333C15.6667 82.6416 19.1917 86.1666 23.5 86.1666H70.5C74.8083 86.1666 78.3333 82.6416 78.3333 78.3333V39.1666C78.3333 34.8583 74.8083 31.3333 70.5 31.3333ZM35.25 23.5C35.25 16.9983 40.4983 11.75 47 11.75C53.5017 11.75 58.75 16.9983 58.75 23.5V31.3333H35.25V23.5ZM70.5 78.3333H23.5V39.1666H70.5V78.3333ZM47 66.5833C51.3083 66.5833 54.8333 63.0583 54.8333 58.75C54.8333 54.4416 51.3083 50.9166 47 50.9166C42.6917 50.9166 39.1667 54.4416 39.1667 58.75C39.1667 63.0583 42.6917 66.5833 47 66.5833Z" fill="white"/>
</svg>
