<svg width="28" height="28" viewBox="0 0 28 28" fill="none" xmlns="http://www.w3.org/2000/svg">
<path d="M13.9999 14.5H22.1666M22.1666 14.5L18.6666 18M22.1666 14.5L18.6666 11M22.1666 7.5V6.33333C22.1666 5.71449 21.9208 5.121 21.4832 4.68342C21.0456 4.24583 20.4521 4 19.8333 4H8.16659C7.54775 4 6.95425 4.24583 6.51667 4.68342C6.07908 5.121 5.83325 5.71449 5.83325 6.33333V22.6667C5.83325 23.2855 6.07908 23.879 6.51667 24.3166C6.95425 24.7542 7.54775 25 8.16659 25H19.8333C20.4521 25 21.0456 24.7542 21.4832 24.3166C21.9208 23.879 22.1666 23.2855 22.1666 22.6667V21.5" stroke="white" stroke-width="1.5" stroke-linecap="round" stroke-linejoin="round"/>
</svg>
