<svg width="169" height="99" viewBox="0 0 169 99" fill="none" xmlns="http://www.w3.org/2000/svg">
<path d="M53.1877 91.3807H38.8653C37.9017 91.4176 36.9407 91.2556 36.0424 90.9049C35.1441 90.5541 34.3277 90.0221 33.644 89.3419C32.9603 88.6618 32.4241 87.8482 32.0686 86.9517C31.7132 86.0552 31.5462 85.0951 31.5781 84.1313C31.5781 81.6098 32.3639 79.692 33.9357 78.378H35.8269C35.4102 78.7721 35.0806 79.249 34.8591 79.7781C34.6377 80.3071 34.5293 80.8766 34.5409 81.4501C34.5229 82.0545 34.6347 82.6557 34.8689 83.2133C35.103 83.7708 35.4541 84.2716 35.8983 84.6818C36.8555 85.5436 38.1122 85.9962 39.399 85.9426H51.1158L50.3341 70.6999V70.2796C50.3503 69.9174 50.4411 69.5624 50.6009 69.237C50.7608 68.9116 50.9861 68.6227 51.2629 68.3885L55.1209 64.7112V83.6228C55.1181 87.0101 54.4737 89.596 53.1877 91.3807ZM45.2028 75.7346C45.1889 75.7478 45.1723 75.758 45.1542 75.7645C45.1362 75.771 45.1169 75.7737 45.0977 75.7724H45.0263C44.5965 75.5904 44.1355 75.4933 43.6689 75.4866C42.883 75.4866 42.3703 75.7346 42.1307 76.2347C42.4109 76.8314 43.2206 77.1298 44.5598 77.1298C44.9948 77.1561 45.4292 77.0693 45.8206 76.8777C45.8291 76.8669 45.8399 76.8582 45.8523 76.8524C45.8647 76.8466 45.8783 76.8437 45.892 76.844C45.9063 76.8419 45.9209 76.8432 45.9346 76.8477C45.9483 76.8522 45.9608 76.8599 45.971 76.8701C45.9812 76.8803 45.9889 76.8928 45.9934 76.9065C45.998 76.9202 45.9992 76.9348 45.9971 76.9491C45.829 77.5094 45.5488 78.35 45.1566 79.4706H44.8708C43.1561 79.4706 42.0355 80.1963 41.5087 81.6476H41.0086C40.6151 81.1761 40.4008 80.5807 40.4035 79.9665C40.3929 79.6583 40.4552 79.352 40.5851 79.0724C40.7151 78.7927 40.9091 78.5476 41.1515 78.357C40.6736 77.8412 40.4066 77.1648 40.4035 76.4616C40.3946 76.0113 40.4806 75.5643 40.6558 75.1494C40.831 74.7345 41.0916 74.3611 41.4205 74.0535C41.7538 73.7295 42.1486 73.4755 42.5817 73.3066C43.0148 73.1377 43.4774 73.0573 43.942 73.0701C45.1103 73.0701 45.7421 73.44 45.8374 74.1796C45.8588 74.2242 45.8703 74.273 45.871 74.3225C45.7935 74.8525 45.5543 75.3456 45.186 75.7346H45.2028Z" fill="#85878D"/>
<path d="M53.9736 96.9912V95.0622C55.5635 95.0499 57.1442 94.8208 58.6721 94.3814C59.7937 94.021 60.799 93.3682 61.5845 92.4902C62.1721 91.8189 62.659 91.0657 63.0302 90.2544C63.3952 89.599 63.6199 88.8749 63.69 88.1279C63.6233 86.9895 63.2596 85.8883 62.6351 84.934C61.9367 83.7354 61.0368 82.6663 59.9749 81.7737C59.8714 81.6824 59.808 81.5541 59.7984 81.4164C59.8003 81.3438 59.8116 81.2718 59.832 81.2021L61.9753 76.0203C64.001 77.6173 65.3822 79.3081 66.1191 81.0928C66.9081 83.0814 67.3089 85.2027 67.3 87.3421C67.3023 90.1755 66.5369 92.9567 65.0852 95.39C63.6564 97.7939 62.2037 98.9972 60.7272 99C60.0337 99 58.7267 98.6638 56.7978 97.9956L56.4027 97.8569C56.0917 97.735 55.5832 97.5459 54.8688 97.2854L54.3309 97.1046L53.9736 96.9912Z" fill="#85878D"/>
<path d="M70.2878 31.0906H74.9653L74.8014 83.8497C74.8014 85.2506 75.3239 85.951 76.369 85.951H77.5163V91.3807H76.0496C72.7379 91.3807 70.9995 89.6787 70.8342 86.2746" fill="#85878D"/>
<path d="M92.4819 85.951H95.9112L95.8734 91.3807H92.1247C90.5454 91.3713 89.0096 90.8623 87.7372 89.9266C86.4914 90.8928 84.9557 91.4097 83.3792 91.3933H76.8694V85.951H82.194C81.7852 85.221 81.5751 84.3964 81.5847 83.5598C81.5847 81.747 82.4014 80.038 84.0348 78.4326C85.6682 76.8272 87.4122 76.0231 89.267 76.0203C89.8894 76.0202 90.5027 76.1694 91.0555 76.4553C91.6083 76.7412 92.0845 77.1555 92.4441 77.6635C93.3224 78.8229 93.7763 80.2485 93.7301 81.7022C93.7342 83.2095 93.3006 84.6855 92.4819 85.951ZM92.6963 70.8764L90.5151 73.0533C90.4673 73.1231 90.405 73.1817 90.3325 73.2252C90.26 73.2688 90.1789 73.2961 90.0949 73.3055C89.9027 73.282 89.7246 73.1929 89.5906 73.0533L88.0188 71.4858L86.4512 73.0533C86.3971 73.1273 86.3271 73.1884 86.2464 73.232C86.1657 73.2756 86.0764 73.3007 85.9848 73.3055C85.9007 73.2961 85.8197 73.2688 85.7471 73.2252C85.6746 73.1817 85.6123 73.1231 85.5645 73.0533L83.3834 70.8764V70.1998L85.5645 68.0186C85.6137 67.9533 85.6771 67.9001 85.7499 67.8629C85.8227 67.8258 85.903 67.8057 85.9848 67.8043C86.0729 67.807 86.1596 67.8274 86.2397 67.8642C86.3198 67.9011 86.3918 67.9536 86.4512 68.0186L88.0188 69.5904L89.6284 68.0186C89.6876 67.9532 89.7594 67.9004 89.8396 67.8636C89.9198 67.8267 90.0066 67.8066 90.0949 67.8043C90.1767 67.8054 90.2571 67.8253 90.33 67.8625C90.4028 67.8997 90.4662 67.9531 90.5151 68.0186L92.6963 70.1998V70.8764ZM87.981 85.8081C88.4707 85.5423 88.8749 85.1429 89.1465 84.6563C89.418 84.1697 89.5458 83.616 89.5149 83.0596C89.5149 81.5803 88.9434 80.8449 87.8003 80.8449C87.499 80.8489 87.2026 80.9218 86.9338 81.058C86.665 81.1943 86.4309 81.3902 86.2495 81.6308C85.8148 82.1365 85.5802 82.7837 85.5897 83.4505C85.6016 83.7234 85.6693 83.9909 85.7885 84.2367C85.9078 84.4824 86.0761 84.7011 86.2831 84.8794C86.7554 85.3358 87.3419 85.6567 87.981 85.8081Z" fill="#85878D"/>
<path d="M111.772 78.8781L111.351 79.664H111.137C110.612 79.6177 110.196 79.5925 109.876 79.5925C108.619 79.5431 107.367 79.7818 106.216 80.2901C105.173 80.8444 104.283 81.6487 103.627 82.631C104.888 84.8471 107.328 85.9538 110.948 85.951H113.663L112.234 90.4898C112.045 91.0823 111.814 91.3807 111.557 91.3807H95.2681V85.951H100.589C100.08 85.0082 99.822 83.9502 99.8405 82.8789C99.8022 81.102 100.418 79.373 101.572 78.0208C102.06 77.3908 102.686 76.8803 103.401 76.5279C104.116 76.1755 104.902 75.9904 105.699 75.9867C107.388 75.9867 109.413 76.9505 111.772 78.8781Z" fill="#85878D"/>
<path d="M17.3944 56.4069H23.6731V36.1127H11.1116L43.9631 6.64427L70.2922 32.9734H168.607L135.634 0H44.9297L0 41.429H17.3944V56.4069Z" fill="#85878D"/>
<path d="M41.7651 29.8383H34.0576V37.5458H41.7651V29.8383Z" fill="#85878D"/>
<path d="M41.7651 38.9032H34.0576V46.6107H41.7651V38.9032Z" fill="#85878D"/>
<path d="M51.511 29.8383H43.8035V37.5458H51.511V29.8383Z" fill="#85878D"/>
<path d="M51.511 38.6763H43.8035V46.3838H51.511V38.6763Z" fill="#85878D"/>
</svg>
