<svg width="28" height="26" viewBox="0 0 28 26" fill="none" xmlns="http://www.w3.org/2000/svg">
<path d="M20.2998 0.5C22.2377 0.5 23.8545 1.11115 25.1787 2.33105L25.4395 2.58301C26.8108 3.97097 27.5 5.69582 27.5 7.79297C27.5 8.69381 27.3689 9.5774 27.1064 10.4453L26.9863 10.8164C26.6891 11.6714 26.1871 12.6165 25.4688 13.6523L25.1475 14.1025C24.3669 15.1645 23.3446 16.3543 22.0771 17.6729L21.5195 18.2451C20.3715 19.4084 18.9916 20.7384 17.3809 22.2354L15.6934 23.7881L14 25.3242L12.3057 23.7881C10.5414 22.1793 9.00845 20.7379 7.70605 19.4639L6.48047 18.2451C5.14224 16.8907 4.05096 15.6643 3.20215 14.5654L2.85352 14.1025C2.07361 13.0396 1.51118 12.0688 1.15527 11.1885L1.01562 10.8164C0.672638 9.8306 0.500938 8.82357 0.5 7.79297L0.507812 7.4043C0.583123 5.60988 1.18624 4.0991 2.31152 2.84766L2.56055 2.58301C3.93163 1.19538 5.63325 0.5 7.7002 0.5C8.69704 0.500024 9.65001 0.686179 10.5625 1.05957L10.9512 1.23145C11.9816 1.71965 12.8694 2.40653 13.6172 3.29688L14 3.75293L14.3828 3.29688C15.0371 2.51786 15.7986 1.89457 16.6689 1.42383L17.0488 1.23145C18.0785 0.743638 19.1606 0.500028 20.2998 0.5Z" stroke="#8A1717"/>
</svg>
