<svg width="24" height="24" viewBox="0 0 24 24" fill="none" xmlns="http://www.w3.org/2000/svg">
<path d="M21.9375 23.25C19.3333 23.25 16.7604 22.6825 14.2188 21.5475C11.6771 20.4125 9.36458 18.8029 7.28125 16.7188C5.19792 14.6346 3.58875 12.3221 2.45375 9.78125C1.31875 7.24042 0.750833 4.6675 0.75 2.0625C0.75 1.6875 0.875 1.375 1.125 1.125C1.375 0.875 1.6875 0.75 2.0625 0.75H7.125C7.41667 0.75 7.67708 0.849167 7.90625 1.0475C8.13542 1.24583 8.27083 1.48 8.3125 1.75L9.125 6.125C9.16667 6.45833 9.15625 6.73958 9.09375 6.96875C9.03125 7.19792 8.91667 7.39583 8.75 7.5625L5.71875 10.625C6.13542 11.3958 6.63 12.1404 7.2025 12.8588C7.775 13.5771 8.40542 14.27 9.09375 14.9375C9.73958 15.5833 10.4167 16.1825 11.125 16.735C11.8333 17.2875 12.5833 17.7925 13.375 18.25L16.3125 15.3125C16.5 15.125 16.745 14.9846 17.0475 14.8912C17.35 14.7979 17.6467 14.7717 17.9375 14.8125L22.25 15.6875C22.5417 15.7708 22.7812 15.9221 22.9688 16.1412C23.1562 16.3604 23.25 16.605 23.25 16.875V21.9375C23.25 22.3125 23.125 22.625 22.875 22.875C22.625 23.125 22.3125 23.25 21.9375 23.25Z" fill="black" fill-opacity="0.7"/>
</svg>
