<svg width="570" height="519" viewBox="0 0 570 519" fill="none" xmlns="http://www.w3.org/2000/svg">
<path d="M210.799 358.851H176.655C174.358 358.939 172.067 358.553 169.925 357.717C167.784 356.88 165.837 355.612 164.207 353.991C162.577 352.369 161.299 350.43 160.452 348.292C159.604 346.155 159.206 343.866 159.282 341.569C159.282 335.557 161.156 330.985 164.903 327.853H169.411C168.418 328.792 167.632 329.929 167.104 331.191C166.576 332.452 166.318 333.809 166.345 335.176C166.302 336.617 166.569 338.051 167.127 339.38C167.686 340.709 168.523 341.903 169.582 342.881C171.863 344.936 174.859 346.015 177.927 345.887H205.86L203.996 309.548V308.546C204.035 307.683 204.252 306.836 204.633 306.061C205.014 305.285 205.551 304.596 206.211 304.038L215.408 295.271V340.356C215.401 348.432 213.865 354.596 210.799 358.851ZM191.763 321.551C191.73 321.582 191.691 321.607 191.648 321.622C191.605 321.638 191.559 321.644 191.513 321.641H191.343C190.318 321.207 189.219 320.976 188.107 320.96C186.233 320.96 185.011 321.551 184.44 322.743C185.108 324.166 187.038 324.877 190.231 324.877C191.268 324.94 192.303 324.733 193.236 324.276C193.256 324.25 193.282 324.23 193.312 324.216C193.341 324.202 193.374 324.195 193.406 324.196C193.441 324.191 193.475 324.194 193.508 324.204C193.541 324.215 193.57 324.234 193.595 324.258C193.619 324.282 193.637 324.312 193.648 324.345C193.659 324.377 193.662 324.412 193.657 324.446C193.256 325.782 192.588 327.786 191.653 330.458H190.972C186.884 330.458 184.212 332.188 182.957 335.647H181.765C180.826 334.523 180.315 333.104 180.322 331.64C180.297 330.905 180.445 330.175 180.755 329.508C181.065 328.841 181.527 328.257 182.105 327.803C180.966 326.573 180.329 324.96 180.322 323.284C180.301 322.211 180.506 321.145 180.923 320.156C181.341 319.167 181.962 318.277 182.746 317.543C183.541 316.771 184.482 316.165 185.515 315.763C186.547 315.36 187.65 315.168 188.758 315.199C191.543 315.199 193.049 316.08 193.276 317.844C193.327 317.95 193.355 318.066 193.356 318.184C193.172 319.448 192.601 320.624 191.723 321.551H191.763Z" fill="#85878D"/>
<path d="M212.673 372.226V367.628C216.463 367.598 220.231 367.052 223.874 366.005C226.548 365.146 228.945 363.589 230.817 361.496C232.218 359.896 233.379 358.1 234.264 356.166C235.134 354.604 235.669 352.877 235.837 351.097C235.678 348.382 234.811 345.757 233.322 343.482C231.657 340.625 229.511 338.076 226.98 335.948C226.733 335.73 226.582 335.424 226.559 335.096C226.564 334.923 226.591 334.752 226.639 334.585L231.749 322.232C236.578 326.039 239.871 330.07 241.627 334.325C243.508 339.066 244.464 344.123 244.443 349.223C244.448 355.978 242.624 362.608 239.163 368.409C235.756 374.14 232.293 377.009 228.773 377.015C227.12 377.015 224.004 376.214 219.406 374.621L218.464 374.29C217.722 374 216.51 373.549 214.807 372.928L213.524 372.497L212.673 372.226Z" fill="#85878D"/>
<path d="M251.566 215.12H262.717L262.327 340.897C262.327 344.237 263.572 345.907 266.064 345.907H268.799V358.851H265.302C257.407 358.851 253.263 354.793 252.869 346.678" fill="#85878D"/>
<path d="M304.476 345.907H312.652L312.561 358.851H303.624C299.859 358.829 296.198 357.615 293.165 355.385C290.195 357.688 286.533 358.92 282.775 358.881H267.256V345.907H279.95C278.975 344.166 278.474 342.201 278.497 340.206C278.497 335.885 280.444 331.81 284.338 327.983C288.232 324.156 292.39 322.239 296.812 322.232C298.295 322.232 299.758 322.587 301.076 323.269C302.393 323.951 303.529 324.938 304.386 326.149C306.48 328.913 307.562 332.312 307.452 335.778C307.462 339.371 306.428 342.89 304.476 345.907ZM304.987 309.969L299.787 315.159C299.673 315.325 299.525 315.465 299.352 315.569C299.179 315.672 298.986 315.738 298.785 315.76C298.327 315.704 297.903 315.492 297.583 315.159L293.836 311.422L290.099 315.159C289.97 315.335 289.803 315.481 289.611 315.585C289.418 315.689 289.205 315.749 288.987 315.76C288.786 315.738 288.593 315.672 288.42 315.569C288.247 315.465 288.099 315.325 287.985 315.159L282.785 309.969V308.356L287.985 303.156C288.102 303 288.253 302.873 288.427 302.785C288.601 302.696 288.792 302.649 288.987 302.645C289.197 302.652 289.404 302.7 289.595 302.788C289.786 302.876 289.957 303.001 290.099 303.156L293.836 306.903L297.673 303.156C297.814 303 297.986 302.874 298.177 302.786C298.368 302.699 298.575 302.65 298.785 302.645C298.98 302.648 299.172 302.695 299.346 302.784C299.52 302.872 299.671 303 299.787 303.156L304.987 308.356V309.969ZM293.746 345.566C294.913 344.932 295.877 343.98 296.524 342.82C297.172 341.66 297.476 340.34 297.403 339.014C297.403 335.487 296.04 333.734 293.315 333.734C292.597 333.743 291.89 333.917 291.249 334.242C290.609 334.567 290.051 335.034 289.618 335.607C288.582 336.813 288.022 338.356 288.045 339.945C288.073 340.596 288.235 341.234 288.519 341.82C288.803 342.406 289.205 342.927 289.698 343.352C290.824 344.44 292.222 345.205 293.746 345.566Z" fill="#85878D"/>
<path d="M350.463 329.045L349.461 330.918H348.95C347.698 330.808 346.706 330.748 345.944 330.748C342.947 330.63 339.962 331.199 337.218 332.411C334.731 333.733 332.61 335.65 331.046 337.992C334.052 343.275 339.87 345.913 348.499 345.907H354.971L351.565 356.727C351.114 358.14 350.563 358.851 349.952 358.851H311.119V345.907H323.803C322.589 343.659 321.975 341.137 322.019 338.583C321.928 334.347 323.397 330.225 326.147 327.001C327.312 325.499 328.803 324.282 330.507 323.442C332.212 322.602 334.085 322.161 335.986 322.152C340.013 322.152 344.839 324.45 350.463 329.045Z" fill="#85878D"/>
<path d="M125.468 275.474H140.437V227.092H110.49L188.808 156.84L251.576 219.608H485.959L407.35 141H191.112L84 239.766H125.468V275.474Z" fill="#85878D"/>
<path d="M183.568 212.134H165.193V230.509H183.568V212.134Z" fill="#85878D"/>
<path d="M183.568 233.745H165.193V252.12H183.568V233.745Z" fill="#85878D"/>
<path d="M206.802 212.134H188.427V230.509H206.802V212.134Z" fill="#85878D"/>
<path d="M206.802 233.204H188.427V251.579H206.802V233.204Z" fill="#85878D"/>
</svg>
