<svg width="50" height="50" viewBox="0 0 50 50" fill="none" xmlns="http://www.w3.org/2000/svg">
<path d="M35.4167 45.8334C33.6806 45.8334 32.2049 45.2258 30.9897 44.0105C29.7744 42.7952 29.1667 41.3195 29.1667 39.5834C29.1667 39.3751 29.2188 38.889 29.323 38.1251L14.6876 29.5834C14.132 30.1042 13.4897 30.5126 12.7605 30.8084C12.0313 31.1042 11.2501 31.2515 10.4167 31.2501C8.68064 31.2501 7.20494 30.6424 5.98966 29.4272C4.77439 28.2119 4.16675 26.7362 4.16675 25.0001C4.16675 23.264 4.77439 21.7883 5.98966 20.573C7.20494 19.3577 8.68064 18.7501 10.4167 18.7501C11.2501 18.7501 12.0313 18.898 12.7605 19.1938C13.4897 19.4897 14.132 19.8973 14.6876 20.4167L29.323 11.8751C29.2536 11.632 29.2105 11.398 29.1938 11.173C29.1772 10.948 29.1681 10.6959 29.1667 10.4167C29.1667 8.68064 29.7744 7.20494 30.9897 5.98966C32.2049 4.77439 33.6806 4.16675 35.4167 4.16675C37.1529 4.16675 38.6286 4.77439 39.8438 5.98966C41.0591 7.20494 41.6667 8.68064 41.6667 10.4167C41.6667 12.1529 41.0591 13.6286 39.8438 14.8438C38.6286 16.0591 37.1529 16.6667 35.4167 16.6667C34.5834 16.6667 33.8022 16.5188 33.073 16.223C32.3438 15.9272 31.7015 15.5195 31.1459 15.0001L16.5105 23.5417C16.5799 23.7848 16.6237 24.0195 16.6417 24.2459C16.6598 24.4723 16.6681 24.7237 16.6667 25.0001C16.6654 25.2765 16.657 25.5286 16.6417 25.7563C16.6265 25.9841 16.5827 26.2181 16.5105 26.4584L31.1459 35.0001C31.7015 34.4792 32.3438 34.0716 33.073 33.7772C33.8022 33.4827 34.5834 33.3348 35.4167 33.3334C37.1529 33.3334 38.6286 33.9411 39.8438 35.1563C41.0591 36.3716 41.6667 37.8473 41.6667 39.5834C41.6667 41.3195 41.0591 42.7952 39.8438 44.0105C38.6286 45.2258 37.1529 45.8334 35.4167 45.8334Z" fill="black"/>
</svg>
