<svg width="28" height="26" viewBox="0 0 28 26" fill="none" xmlns="http://www.w3.org/2000/svg">
<path d="M14 26L11.97 24.158C9.61333 22.0091 7.665 20.1553 6.125 18.5967C4.585 17.0381 3.36 15.6387 2.45 14.3985C1.54 13.1582 0.9044 12.019 0.5432 10.9809C0.182 9.94281 0.000933333 8.88014 0 7.79291C0 5.57311 0.735 3.71935 2.205 2.23161C3.675 0.743869 5.50667 0 7.7 0C8.91333 0 10.0683 0.259764 11.165 0.779291C12.2617 1.29882 13.2067 2.03088 14 2.97548C14.7933 2.03088 15.7383 1.29882 16.835 0.779291C17.9317 0.259764 19.0867 0 20.3 0C22.4933 0 24.325 0.743869 25.795 2.23161C27.265 3.71935 28 5.57311 28 7.79291C28 8.8792 27.8194 9.94187 27.4582 10.9809C27.097 12.02 26.4609 13.1592 25.55 14.3985C24.6391 15.6378 23.4141 17.0372 21.875 18.5967C20.3359 20.1563 18.3876 22.01 16.03 24.158L14 26Z" fill="#8A1717"/>
</svg>
